<svg width="13" height="13" viewBox="0 0 13 13" fill="none" xmlns="http://www.w3.org/2000/svg">
    <path d="M2.5 6.23999H5.25C5.52614 6.23999 5.75 6.01613 5.75 5.73999V2.98999C5.75 2.57578 6.08579 2.23999 6.5 2.23999C6.91421 2.23999 7.25 2.57578 7.25 2.98999V5.73999C7.25 6.01613 7.47386 6.23999 7.75 6.23999H10.5C10.9142 6.23999 11.25 6.57578 11.25 6.98999C11.25 7.4042 10.9142 7.73999 10.5 7.73999H7.75C7.47386 7.73999 7.25 7.96385 7.25 8.23999V10.99C7.25 11.4042 6.91421 11.74 6.5 11.74C6.08579 11.74 5.75 11.4042 5.75 10.99V8.23999C5.75 7.96385 5.52614 7.73999 5.25 7.73999H2.5C2.08579 7.73999 1.75 7.4042 1.75 6.98999C1.75 6.57578 2.08579 6.23999 2.5 6.23999Z"
          fill="#353535"/>
</svg>
