<svg width="25" height="24" viewBox="0 0 25 24" fill="none" xmlns="http://www.w3.org/2000/svg">
<path d="M21.0365 12.6821L15.5024 18.2162C15.3089 18.4097 15.0638 18.5 14.8187 18.5C14.5736 18.5 14.3285 18.4097 14.135 18.2162C13.7609 17.8421 13.7609 17.2229 14.135 16.8488L18.0179 12.9659H4.87278C4.34387 12.9659 3.90527 12.5273 3.90527 11.9984C3.90527 11.4695 4.34387 11.0309 4.87278 11.0309H18.0179L14.135 7.14798C13.7609 6.77388 13.7609 6.15468 14.135 5.78058C14.5091 5.40647 15.1283 5.40647 15.5024 5.78058L21.0365 11.3147C21.2171 11.4953 21.3203 11.7404 21.3203 11.9984C21.3203 12.2564 21.2171 12.5015 21.0365 12.6821Z" fill="#292D32"/>
</svg>
