<svg width="25" height="24" viewBox="0 0 25 24" fill="none" xmlns="http://www.w3.org/2000/svg">
<path d="M4.18908 12.6821L9.72319 18.2162C9.91669 18.4097 10.1618 18.5 10.4069 18.5C10.652 18.5 10.8971 18.4097 11.0906 18.2162C11.4647 17.8421 11.4647 17.2229 11.0906 16.8488L7.20769 12.9659H20.3528C20.8817 12.9659 21.3203 12.5273 21.3203 11.9984C21.3203 11.4695 20.8817 11.0309 20.3528 11.0309H7.20769L11.0906 7.14798C11.4647 6.77388 11.4647 6.15468 11.0906 5.78058C10.7165 5.40647 10.0973 5.40647 9.72319 5.78058L4.18908 11.3147C4.00848 11.4953 3.90528 11.7404 3.90528 11.9984C3.90528 12.2564 4.00848 12.5015 4.18908 12.6821Z" fill="#292D32"/>
</svg>
