<svg width="17" height="17" viewBox="0 0 17 17" fill="none" xmlns="http://www.w3.org/2000/svg">
<path d="M11.4167 2.07324H6.08333C4.24333 2.07324 2.75 3.56658 2.75 5.40658V12.0732C2.75 13.9132 4.24333 15.4066 6.08333 15.4066H11.4167C13.2567 15.4066 14.75 13.9132 14.75 12.0732V5.40658C14.75 3.56658 13.2567 2.07324 11.4167 2.07324ZM6.65667 13.1599C6.53 13.2866 6.36333 13.3532 6.19 13.3532C6.01 13.3532 5.84333 13.2866 5.71667 13.1599C5.59 13.0332 5.51667 12.8666 5.51667 12.6866C5.51667 12.5132 5.59 12.3399 5.71667 12.2132C5.77667 12.1532 5.85 12.1066 5.93 12.0732C6.09667 12.0066 6.27667 12.0066 6.44333 12.0732C6.48333 12.0866 6.52333 12.1066 6.55667 12.1332C6.59667 12.1532 6.63 12.1866 6.65667 12.2132C6.78333 12.3399 6.85667 12.5132 6.85667 12.6866C6.85667 12.8666 6.78333 13.0332 6.65667 13.1599ZM5.51667 10.0199C5.51667 9.93324 5.53667 9.84658 5.57 9.76658C5.60333 9.67991 5.65 9.61324 5.71667 9.54658C5.87 9.39324 6.10333 9.31991 6.31667 9.36658C6.35667 9.37324 6.40333 9.38658 6.44333 9.40658C6.48333 9.41991 6.52333 9.43991 6.55667 9.46658C6.59667 9.48658 6.63 9.51991 6.65667 9.54658C6.71667 9.61324 6.77 9.67991 6.80333 9.76658C6.83667 9.84658 6.85 9.93324 6.85 10.0199C6.85 10.1999 6.78333 10.3666 6.65667 10.4932C6.53 10.6199 6.36333 10.6866 6.19 10.6866C6.09667 10.6866 6.01 10.6666 5.93 10.6332C5.85 10.5999 5.77667 10.5532 5.71667 10.4932C5.59 10.3666 5.51667 10.1999 5.51667 10.0199ZM9.32333 13.1599C9.26333 13.2199 9.19 13.2666 9.11 13.2999C9.03 13.3332 8.94333 13.3532 8.85 13.3532C8.67667 13.3532 8.51 13.2866 8.38333 13.1599C8.25667 13.0332 8.18333 12.8666 8.18333 12.6866C8.18333 12.6399 8.19 12.5999 8.19667 12.5532C8.21 12.5132 8.22333 12.4732 8.23667 12.4332C8.25667 12.3932 8.27667 12.3532 8.29667 12.3132C8.32333 12.2799 8.35 12.2466 8.38333 12.2132C8.44333 12.1532 8.51667 12.1066 8.59667 12.0732C8.84333 11.9732 9.13667 12.0266 9.32333 12.2132C9.45 12.3399 9.51667 12.5132 9.51667 12.6866C9.51667 12.8666 9.45 13.0332 9.32333 13.1599ZM9.32333 10.4932C9.19667 10.6199 9.03 10.6866 8.85 10.6866C8.67667 10.6866 8.51 10.6199 8.38333 10.4932C8.25667 10.3666 8.18333 10.1999 8.18333 10.0199C8.18333 9.84658 8.25667 9.67324 8.38333 9.54658C8.63 9.29991 9.07667 9.29991 9.32333 9.54658C9.38333 9.61324 9.43667 9.67991 9.47 9.76658C9.50333 9.84658 9.51667 9.93324 9.51667 10.0199C9.51667 10.1999 9.45 10.3666 9.32333 10.4932ZM6.75 7.71324C6.06333 7.71324 5.49667 7.15324 5.49667 6.45991V5.79324C5.49667 5.10658 6.05667 4.53991 6.75 4.53991H10.75C11.4367 4.53991 12.0033 5.09991 12.0033 5.79324V6.45991C12.0033 7.14658 11.4433 7.71324 10.75 7.71324H6.75ZM11.99 13.1599C11.8633 13.2866 11.6967 13.3532 11.5167 13.3532C11.43 13.3532 11.3433 13.3332 11.2633 13.2999C11.1833 13.2666 11.11 13.2199 11.05 13.1599C10.9233 13.0332 10.8567 12.8666 10.8567 12.6866C10.8567 12.5132 10.9233 12.3399 11.05 12.2132C11.23 12.0266 11.53 11.9732 11.7767 12.0732C11.8567 12.1066 11.93 12.1532 11.99 12.2132C12.1167 12.3399 12.1833 12.5132 12.1833 12.6866C12.1833 12.8666 12.1167 13.0332 11.99 13.1599ZM12.1367 10.2732C12.1033 10.3532 12.0567 10.4266 11.99 10.4932C11.8633 10.6199 11.6967 10.6866 11.5167 10.6866C11.3433 10.6866 11.1767 10.6199 11.05 10.4932C10.9233 10.3666 10.85 10.1999 10.85 10.0199C10.85 9.84658 10.9233 9.67324 11.05 9.54658C11.2967 9.29991 11.7433 9.29991 11.99 9.54658C12.1167 9.67324 12.19 9.84658 12.19 10.0199C12.19 10.1066 12.17 10.1932 12.1367 10.2732Z" fill="#626262"/>
</svg>
