<svg width="17" height="17" viewBox="0 0 17 17" fill="none" xmlns="http://www.w3.org/2000/svg">
<path d="M11.9167 3.11324V2.07324C11.9167 1.79991 11.69 1.57324 11.4167 1.57324C11.1433 1.57324 10.9167 1.79991 10.9167 2.07324V3.07324H6.58332V2.07324C6.58332 1.79991 6.35666 1.57324 6.08332 1.57324C5.80999 1.57324 5.58332 1.79991 5.58332 2.07324V3.11324C3.78332 3.27991 2.90999 4.35324 2.77666 5.94658C2.76332 6.13991 2.92332 6.29991 3.10999 6.29991H14.39C14.5833 6.29991 14.7433 6.13324 14.7233 5.94658C14.59 4.35324 13.7167 3.27991 11.9167 3.11324Z" fill="#626262"/>
<path d="M14.0833 7.30005H3.41667C3.05 7.30005 2.75 7.60005 2.75 7.96672V12.0734C2.75 14.0734 3.75 15.4067 6.08333 15.4067H11.4167C13.75 15.4067 14.75 14.0734 14.75 12.0734V7.96672C14.75 7.60005 14.45 7.30005 14.0833 7.30005ZM6.89 12.88C6.85667 12.9067 6.82333 12.94 6.79 12.96C6.75 12.9867 6.71 13.0067 6.67 13.02C6.63 13.04 6.59 13.0534 6.55 13.06C6.50333 13.0667 6.46333 13.0734 6.41667 13.0734C6.33 13.0734 6.24333 13.0534 6.16333 13.02C6.07667 12.9867 6.01 12.94 5.94333 12.88C5.82333 12.7534 5.75 12.58 5.75 12.4067C5.75 12.2334 5.82333 12.06 5.94333 11.9334C6.01 11.8734 6.07667 11.8267 6.16333 11.7934C6.28333 11.74 6.41667 11.7267 6.55 11.7534C6.59 11.76 6.63 11.7734 6.67 11.7934C6.71 11.8067 6.75 11.8267 6.79 11.8534C6.82333 11.88 6.85667 11.9067 6.89 11.9334C7.01 12.06 7.08333 12.2334 7.08333 12.4067C7.08333 12.58 7.01 12.7534 6.89 12.88ZM6.89 10.5467C6.76333 10.6667 6.59 10.74 6.41667 10.74C6.24333 10.74 6.07 10.6667 5.94333 10.5467C5.82333 10.42 5.75 10.2467 5.75 10.0734C5.75 9.90005 5.82333 9.72672 5.94333 9.60005C6.13 9.41338 6.42333 9.35338 6.67 9.46005C6.75667 9.49338 6.83 9.54005 6.89 9.60005C7.01 9.72672 7.08333 9.90005 7.08333 10.0734C7.08333 10.2467 7.01 10.42 6.89 10.5467ZM9.22333 12.88C9.09667 13 8.92333 13.0734 8.75 13.0734C8.57667 13.0734 8.40333 13 8.27667 12.88C8.15667 12.7534 8.08333 12.58 8.08333 12.4067C8.08333 12.2334 8.15667 12.06 8.27667 11.9334C8.52333 11.6867 8.97667 11.6867 9.22333 11.9334C9.34333 12.06 9.41667 12.2334 9.41667 12.4067C9.41667 12.58 9.34333 12.7534 9.22333 12.88ZM9.22333 10.5467C9.19 10.5734 9.15667 10.6 9.12333 10.6267C9.08333 10.6534 9.04333 10.6734 9.00333 10.6867C8.96333 10.7067 8.92333 10.72 8.88333 10.7267C8.83667 10.7334 8.79667 10.74 8.75 10.74C8.57667 10.74 8.40333 10.6667 8.27667 10.5467C8.15667 10.42 8.08333 10.2467 8.08333 10.0734C8.08333 9.90005 8.15667 9.72672 8.27667 9.60005C8.33667 9.54005 8.41 9.49338 8.49667 9.46005C8.74333 9.35338 9.03667 9.41338 9.22333 9.60005C9.34333 9.72672 9.41667 9.90005 9.41667 10.0734C9.41667 10.2467 9.34333 10.42 9.22333 10.5467ZM11.5567 12.88C11.43 13 11.2567 13.0734 11.0833 13.0734C10.91 13.0734 10.7367 13 10.61 12.88C10.49 12.7534 10.4167 12.58 10.4167 12.4067C10.4167 12.2334 10.49 12.06 10.61 11.9334C10.8567 11.6867 11.31 11.6867 11.5567 11.9334C11.6767 12.06 11.75 12.2334 11.75 12.4067C11.75 12.58 11.6767 12.7534 11.5567 12.88ZM11.5567 10.5467C11.5233 10.5734 11.49 10.6 11.4567 10.6267C11.4167 10.6534 11.3767 10.6734 11.3367 10.6867C11.2967 10.7067 11.2567 10.72 11.2167 10.7267C11.17 10.7334 11.1233 10.74 11.0833 10.74C10.91 10.74 10.7367 10.6667 10.61 10.5467C10.49 10.42 10.4167 10.2467 10.4167 10.0734C10.4167 9.90005 10.49 9.72672 10.61 9.60005C10.6767 9.54005 10.7433 9.49338 10.83 9.46005C10.95 9.40672 11.0833 9.39338 11.2167 9.42005C11.2567 9.42672 11.2967 9.44005 11.3367 9.46005C11.3767 9.47338 11.4167 9.49338 11.4567 9.52005C11.49 9.54672 11.5233 9.57338 11.5567 9.60005C11.6767 9.72672 11.75 9.90005 11.75 10.0734C11.75 10.2467 11.6767 10.42 11.5567 10.5467Z" fill="#626262"/>
</svg>
