<svg width="24" height="25" viewBox="0 0 24 25" fill="none" xmlns="http://www.w3.org/2000/svg">
<path d="M21.3301 15.17C20.2801 14.12 19.4501 14.46 18.7301 15.17L14.5801 19.32C14.4201 19.48 14.2701 19.79 14.2301 20.01L14.0001 21.6C13.9201 22.17 14.3201 22.58 14.8901 22.49L16.4801 22.26C16.7001 22.23 17.0101 22.07 17.1701 21.91L21.3201 17.76C22.0501 17.05 22.3801 16.22 21.3301 15.17Z" fill="#292D32"/>
<path d="M6.74683 2.56549C7.29669 2.49425 7.75 2.95112 7.75 3.50557V7.3C7.75 7.85229 7.30228 8.3 6.75 8.3H3C2.44772 8.3 1.9918 7.85027 2.05867 7.30204C2.38633 4.61548 4.07187 2.91205 6.74683 2.56549Z" fill="#292D32"/>
<path d="M20.93 8.3H17.25C16.6977 8.3 16.25 7.85228 16.25 7.3V3.50625C16.25 2.95153 16.7041 2.49459 17.2542 2.56633C19.8878 2.90978 21.5645 4.5681 21.93 7.18C22.01 7.77 21.53 8.3 20.93 8.3Z" fill="#292D32"/>
<path d="M6.75 16.8C7.30228 16.8 7.75 17.2478 7.75 17.8V21.42C7.75 22.02 7.22 22.5 6.62 22.42C4.05088 22.0378 2.43008 20.3911 2.07373 17.8102C1.99752 17.2582 2.4555 16.8 3.01274 16.8H6.75Z" fill="#292D32"/>
<path d="M7.75 10.8C7.75 10.2478 7.30228 9.80005 6.75 9.80005H3C2.44772 9.80005 2 10.2478 2 10.8V14.3C2 14.8523 2.44772 15.3 3 15.3H6.75C7.30228 15.3 7.75 14.8523 7.75 14.3V10.8Z" fill="#292D32"/>
<path d="M14.75 10.8C14.75 10.2478 14.3023 9.80005 13.75 9.80005H10.25C9.69772 9.80005 9.25 10.2478 9.25 10.8V14.3C9.25 14.8523 9.69772 15.3 10.25 15.3H13.75C14.3 15.3 14.75 14.85 14.75 14.3V10.8Z" fill="#292D32"/>
<path d="M14.75 3.5C14.75 2.94771 14.3023 2.5 13.75 2.5H10.25C9.69772 2.5 9.25 2.94772 9.25 3.5V7.3C9.25 7.85229 9.69772 8.3 10.25 8.3H13.75C14.3023 8.3 14.75 7.85228 14.75 7.3V3.5Z" fill="#292D32"/>
</svg>
