<svg width="17" height="17" viewBox="0 0 17 17" fill="none" xmlns="http://www.w3.org/2000/svg">
<path d="M15.2434 9.34656C15.07 8.77323 14.7834 8.27323 14.4034 7.86656C13.9167 7.31323 13.27 6.93323 12.5434 6.76656C12.1767 5.0999 11.15 3.8999 9.69004 3.45323C8.10337 2.9599 6.26337 3.4399 5.11004 4.64656C4.09671 5.70656 3.76337 7.16656 4.15671 8.7199C2.82337 9.04656 2.16337 10.1599 2.09004 11.2199C2.08337 11.2932 2.08337 11.3599 2.08337 11.4266C2.08337 12.6799 2.90337 14.0866 4.73004 14.2199H11.65C12.5967 14.2199 13.5034 13.8666 14.1967 13.2332C15.2834 12.2799 15.6834 10.7932 15.2434 9.34656Z" fill="#626262"/>
</svg>
