<svg width="13" height="13" viewBox="0 0 13 13" fill="none" xmlns="http://www.w3.org/2000/svg">
    <path d="M6.16677 6.74402L2.369 2.9591C2.21033 2.79894 2.21033 2.53949 2.369 2.37933C2.52485 2.21631 2.78225 2.21141 2.94409 2.36839L6.74186 6.15331L10.4908 2.36839C10.5677 2.28643 10.6746 2.23999 10.7865 2.23999C10.8984 2.23999 11.0053 2.28643 11.0822 2.36839C11.2228 2.52313 11.2228 2.76061 11.0822 2.91534L7.33323 6.69479L11.131 10.4742C11.2897 10.6344 11.2897 10.8938 11.131 11.054C11.0555 11.132 10.9516 11.1755 10.8435 11.1743C10.7332 11.1833 10.624 11.1479 10.5396 11.0759L6.74186 7.29097L2.94409 11.1196C2.86856 11.1976 2.76467 11.2411 2.65655 11.24C2.54854 11.2405 2.44489 11.1971 2.369 11.1196C2.21033 10.9595 2.21033 10.7 2.369 10.5399L6.16677 6.74402Z"
          fill="#626262"/>
</svg>
