<svg width="24" height="25" viewBox="0 0 24 25" fill="none" xmlns="http://www.w3.org/2000/svg">
<path d="M20.5 10.69H17.61C15.24 10.69 13.31 8.76 13.31 6.39V3.5C13.31 2.95 12.86 2.5 12.31 2.5H8.07C4.99 2.5 2.5 4.5 2.5 8.07V16.93C2.5 20.5 4.99 22.5 8.07 22.5H15.93C19.01 22.5 21.5 20.5 21.5 16.93V11.69C21.5 11.14 21.05 10.69 20.5 10.69Z" fill="#292D32"/>
<path d="M15.8001 2.71C15.3901 2.3 14.6801 2.58 14.6801 3.15V6.64C14.6801 8.1 15.9201 9.31 17.4301 9.31C18.3801 9.32 19.7001 9.32 20.8301 9.32C21.4001 9.32 21.7001 8.65 21.3001 8.25C19.8601 6.8 17.2801 4.19 15.8001 2.71Z" fill="#292D32"/>
</svg>
