<svg width="25" height="24" viewBox="0 0 25 24" fill="none" xmlns="http://www.w3.org/2000/svg">
<path d="M12.3288 11.3179L6.79471 5.7838C6.60121 5.5903 6.35611 5.5 6.11101 5.5C5.8659 5.5 5.6208 5.5903 5.4273 5.7838C5.0532 6.1579 5.0532 6.7771 5.4273 7.1512L9.31021 11.0341C9.49797 11.2105 10.0448 11.6993 10.0448 12.0016C10.0448 12.3039 9.45262 12.823 9.31034 12.9691L5.4273 16.852C5.0532 17.2261 5.0532 17.8453 5.4273 18.2194C5.8014 18.5935 6.4206 18.5935 6.79471 18.2194L12.3288 12.6853C12.5094 12.5047 12.6126 12.2596 12.6126 12.0016C12.6126 11.7436 12.5094 11.4985 12.3288 11.3179Z" fill="#292D32"/>
<path d="M19.7948 11.3179L14.2607 5.7838C14.0672 5.5903 13.8221 5.5 13.577 5.5C13.3319 5.5 13.0868 5.5903 12.8933 5.7838C12.5192 6.1579 12.5192 6.7771 12.8933 7.1512L16.7762 11.0341C16.964 11.2105 17.5108 11.6993 17.5108 12.0016C17.5108 12.3039 16.9186 12.823 16.7764 12.9691L12.8933 16.852C12.5192 17.2261 12.5192 17.8453 12.8933 18.2194C13.2674 18.5935 13.8866 18.5935 14.2607 18.2194L19.7948 12.6853C19.9754 12.5047 20.0786 12.2596 20.0786 12.0016C20.0786 11.7436 19.9754 11.4985 19.7948 11.3179Z" fill="#292D32"/>
</svg>
