<svg width="25" height="24" viewBox="0 0 25 24" fill="none" xmlns="http://www.w3.org/2000/svg">
<path d="M5.43053 12.6821L10.9646 18.2162C11.1581 18.4097 11.4032 18.5 11.6483 18.5C11.8934 18.5 12.1385 18.4097 12.332 18.2162C12.7061 17.8421 12.7061 17.2229 12.332 16.8488L8.44913 12.9659C8.26138 12.7895 7.71452 12.3007 7.71452 11.9984C7.71452 11.6961 8.30673 11.177 8.44901 11.0309L12.332 7.14798C12.7061 6.77388 12.7061 6.15468 12.332 5.78058C11.9579 5.40647 11.3387 5.40647 10.9646 5.78058L5.43053 11.3147C5.24993 11.4953 5.14673 11.7404 5.14673 11.9984C5.14673 12.2564 5.24993 12.5015 5.43053 12.6821Z" fill="#292D32"/>
<path d="M12.8965 12.6821L18.4307 18.2162C18.6242 18.4097 18.8693 18.5 19.1144 18.5C19.3595 18.5 19.6046 18.4097 19.7981 18.2162C20.1722 17.8421 20.1722 17.2229 19.7981 16.8488L15.9151 12.9659C15.7274 12.7895 15.1805 12.3007 15.1805 11.9984C15.1805 11.6961 15.7727 11.177 15.915 11.0309L19.7981 7.14798C20.1722 6.77388 20.1722 6.15468 19.7981 5.78058C19.424 5.40647 18.8048 5.40647 18.4307 5.78058L12.8965 11.3147C12.7159 11.4953 12.6127 11.7404 12.6127 11.9984C12.6127 12.2564 12.7159 12.5015 12.8965 12.6821Z" fill="#292D32"/>
</svg>
