<svg width="17" height="17" viewBox="0 0 17 17" fill="none" xmlns="http://www.w3.org/2000/svg">
<path d="M12.0833 1.42725H6.08329C4.60996 1.42725 3.41663 2.62058 3.41663 4.09391V8.92725C3.41663 9.29391 3.71663 9.59391 4.08329 9.59391H14.0833C14.45 9.59391 14.75 9.29391 14.75 8.92725V4.09391C14.75 2.62058 13.5566 1.42725 12.0833 1.42725ZM6.08329 8.59391H5.41663C5.14329 8.59391 4.91663 8.36725 4.91663 8.09391C4.91663 7.82058 5.14329 7.59391 5.41663 7.59391H6.08329C6.35663 7.59391 6.58329 7.82058 6.58329 8.09391C6.58329 8.36725 6.35663 8.59391 6.08329 8.59391ZM6.08329 6.92725H5.41663C5.14329 6.92725 4.91663 6.70058 4.91663 6.42725C4.91663 6.15391 5.14329 5.92725 5.41663 5.92725H6.08329C6.35663 5.92725 6.58329 6.15391 6.58329 6.42725C6.58329 6.70058 6.35663 6.92725 6.08329 6.92725ZM6.08329 5.26058H5.41663C5.14329 5.26058 4.91663 5.03391 4.91663 4.76058C4.91663 4.48725 5.14329 4.26058 5.41663 4.26058H6.08329C6.35663 4.26058 6.58329 4.48725 6.58329 4.76058C6.58329 5.03391 6.35663 5.26058 6.08329 5.26058Z" fill="#626262"/>
<path d="M3.41663 11.2607V12.094C3.41663 13.5673 4.60996 14.7607 6.08329 14.7607H12.0833C13.5566 14.7607 14.75 13.5673 14.75 12.094V11.2607C14.75 10.894 14.45 10.594 14.0833 10.594H4.08329C3.71663 10.594 3.41663 10.894 3.41663 11.2607ZM12.5566 13.0673C12.43 13.1873 12.2566 13.2607 12.0833 13.2607C11.91 13.2607 11.7366 13.1873 11.61 13.0673C11.49 12.9407 11.4166 12.7673 11.4166 12.594C11.4166 12.4207 11.49 12.2473 11.61 12.1207C11.8566 11.874 12.3033 11.874 12.5566 12.1207C12.6766 12.2473 12.75 12.4207 12.75 12.594C12.75 12.7673 12.6766 12.9407 12.5566 13.0673Z" fill="#626262"/>
</svg>
