<svg width="17" height="17" viewBox="0 0 17 17" fill="none" xmlns="http://www.w3.org/2000/svg">
<path d="M14.75 14.9067H2.75C2.47667 14.9067 2.25 14.6801 2.25 14.4067C2.25 14.1334 2.47667 13.9067 2.75 13.9067H14.75C15.0233 13.9067 15.25 14.1334 15.25 14.4067C15.25 14.6801 15.0233 14.9067 14.75 14.9067Z" fill="#009345"/>
<path d="M13.43 2.55993C12.1367 1.2666 10.87 1.23327 9.54334 2.55993L8.73668 3.3666C8.67001 3.43327 8.64334 3.53993 8.67001 3.63327C9.17668 5.39993 10.59 6.81327 12.3567 7.31993C12.3833 7.3266 12.41 7.33327 12.4367 7.33327C12.51 7.33327 12.5767 7.3066 12.63 7.25327L13.43 6.4466C14.09 5.79327 14.41 5.15993 14.41 4.51993C14.4167 3.85993 14.0967 3.21993 13.43 2.55993Z" fill="#009345"/>
<path d="M11.1567 7.92677C10.9633 7.83344 10.7767 7.7401 10.5967 7.63344C10.45 7.54677 10.31 7.45344 10.17 7.35344C10.0567 7.2801 9.92334 7.17344 9.79667 7.06677C9.78334 7.0601 9.73667 7.0201 9.68334 6.96677C9.46334 6.7801 9.21668 6.5401 8.99668 6.27344C8.97668 6.2601 8.94334 6.21344 8.89668 6.15344C8.83001 6.07344 8.71668 5.9401 8.61668 5.78677C8.53668 5.68677 8.44334 5.5401 8.35668 5.39344C8.25001 5.21344 8.15668 5.03344 8.06334 4.84677C7.94097 4.58454 7.5968 4.50665 7.39218 4.71126L3.64334 8.4601C3.55668 8.54677 3.47668 8.71344 3.45668 8.82677L3.09668 11.3801C3.03001 11.8334 3.15668 12.2601 3.43668 12.5468C3.67668 12.7801 4.01001 12.9068 4.37001 12.9068C4.45001 12.9068 4.53001 12.9001 4.61001 12.8868L7.17001 12.5268C7.29001 12.5068 7.45668 12.4268 7.53668 12.3401L11.2917 8.58508C11.4922 8.38455 11.4169 8.03953 11.1567 7.92677Z" fill="#009345"/>
</svg>
