<svg width="25" height="25" viewBox="0 0 25 25" fill="none" xmlns="http://www.w3.org/2000/svg">
<path d="M17.2968 2.3263C16.8868 1.9163 16.1768 2.1963 16.1768 2.7663V6.2563C16.1768 7.7163 17.4168 8.9263 18.9268 8.9263C19.8768 8.9363 21.1968 8.9363 22.3268 8.9363C22.8968 8.9363 23.1968 8.2663 22.7968 7.8663C21.3568 6.4163 18.7768 3.8063 17.2968 2.3263Z" fill="#009345"/>
<path fill-rule="evenodd" clip-rule="evenodd" d="M3.93171 6.17465C2.61912 6.17465 1.55505 7.23872 1.55505 8.55131V15.6813C1.55505 16.9939 2.61912 18.0579 3.93171 18.0579H11.0617C12.3743 18.0579 13.4384 16.9939 13.4384 15.6813V8.55131C13.4384 7.23872 12.3743 6.17465 11.0617 6.17465H3.93171ZM4.4967 7.1163C3.39213 7.1163 2.4967 8.01173 2.4967 9.1163V15.1163C2.4967 16.2209 3.39213 17.1163 4.4967 17.1163H10.4967C11.6013 17.1163 12.4967 16.2209 12.4967 15.1163V9.1163C12.4967 8.01173 11.6013 7.1163 10.4967 7.1163H4.4967Z" fill="#009345"/>
<path d="M19.1067 10.3063H21.9967C22.5467 10.3063 22.9967 10.7563 22.9967 11.3063V16.5463C22.9967 20.1163 20.5067 22.1163 17.4267 22.1163H9.5667C6.63702 22.1163 4.24115 20.3067 4.01428 17.0577C4.1688 17.096 4.33035 17.1163 4.4967 17.1163H10.4967C11.6013 17.1163 12.4967 16.2209 12.4967 15.1163V9.1163C12.4967 8.01173 11.6013 7.1163 10.4967 7.1163H4.4967C4.33035 7.1163 4.1688 7.13661 4.01428 7.17489C4.24115 3.92585 6.63702 2.1163 9.5667 2.1163H13.8067C14.3567 2.1163 14.8067 2.5663 14.8067 3.1163V6.0063C14.8067 8.3763 16.7367 10.3063 19.1067 10.3063Z" fill="#009345"/>
<path d="M7.39415 13.6443L8.43415 15.1163H10.5381L8.55415 12.3163L10.3862 9.4523H8.36215L7.53015 10.8683L6.53015 9.4523H4.42615L6.37015 12.1963L4.50615 15.1163H6.53015L7.39415 13.6443Z" fill="#009345"/>
</svg>
