<svg width="17" height="17" viewBox="0 0 17 17" fill="none" xmlns="http://www.w3.org/2000/svg">
<path d="M14.4833 3.47323V4.93989C14.4833 5.47323 14.15 6.13989 13.8167 6.47323L10.95 9.00656C10.55 9.33989 10.2833 10.0066 10.2833 10.5399V13.4066C10.2833 13.8066 10.0167 14.3399 9.68334 14.5399L8.75001 15.1399C7.88334 15.6732 6.68334 15.0732 6.68334 14.0066V10.4732C6.68334 10.0066 6.41667 9.40656 6.15001 9.07323L5.83667 8.74656C5.63001 8.52656 5.59001 8.19323 5.75667 7.93323L9.17001 2.45323C9.29001 2.25989 9.50334 2.13989 9.73667 2.13989H13.15C13.8833 2.13989 14.4833 2.73989 14.4833 3.47323Z" fill="#626262"/>
<path d="M7.65006 3.15989L5.28339 6.95323C5.05672 7.31989 4.53672 7.37323 4.23672 7.05989L3.61672 6.40656C3.28339 6.07323 3.01672 5.47323 3.01672 5.07323V3.53989C3.01672 2.73989 3.61672 2.13989 4.35006 2.13989H7.08339C7.60339 2.13989 7.92339 2.71323 7.65006 3.15989Z" fill="#626262"/>
</svg>
