<svg width="17" height="17" viewBox="0 0 17 17" fill="none" xmlns="http://www.w3.org/2000/svg">
<path d="M14.464 5.69905C14.9334 6.20801 14.4672 6.90658 13.7749 6.90658H3.08337C2.53109 6.90658 2.08337 6.45886 2.08337 5.90658V5.01991C2.08337 3.39324 3.40337 2.07324 5.03004 2.07324H6.57671C7.66337 2.07324 8.00337 2.42658 8.43671 3.00658L9.37004 4.24658C9.57671 4.51991 9.60337 4.55324 9.99004 4.55324H11.85C12.8831 4.55324 13.8141 4.9942 14.464 5.69905Z" fill="#626262"/>
<path d="M14.4067 7.90651C14.9577 7.9065 15.4049 8.35215 15.4068 8.90312L15.4167 11.84C15.4167 13.8067 13.8167 15.4067 11.85 15.4067H5.65004C3.68337 15.4067 2.08337 13.8067 2.08337 11.84V8.90666C2.08337 8.35438 2.53108 7.90667 3.08336 7.90666L14.4067 7.90651Z" fill="#626262"/>
</svg>
