<svg width="17" height="17" viewBox="0 0 17 17" fill="none" xmlns="http://www.w3.org/2000/svg">
    <path d="M12.7387 4.32132L12.2171 3.36337C12.1692 3.2729 12.0734 3.21968 11.9723 3.21436C11.8659 3.21436 11.7754 3.2729 11.7275 3.36337L11.206 4.32133L10.248 4.84288C10.1575 4.89078 10.1043 4.98657 10.099 5.08769C10.099 5.19413 10.1575 5.2846 10.248 5.3325L11.206 5.85405L11.7275 6.81201C11.7754 6.90248 11.8712 6.9557 11.9723 6.96102C12.0788 6.96102 12.1692 6.90248 12.2171 6.81201L12.7387 5.85405L13.6967 5.3325C13.7179 5.32186 13.7392 5.30057 13.7605 5.27928C13.8137 5.22606 13.8403 5.15687 13.8457 5.07704C13.8457 4.97061 13.7871 4.88013 13.6967 4.83223L12.7387 4.32132Z"
          fill="white"/>
    <path d="M7.37486 5.33375L6.3763 3.49966C6.2846 3.32644 6.10119 3.22454 5.90759 3.21436C5.7038 3.21436 5.53058 3.32644 5.43888 3.49966L4.44032 5.33375L2.60623 6.33231C2.43301 6.42401 2.33111 6.60742 2.32092 6.80102C2.32092 7.00481 2.43301 7.17803 2.60623 7.26973L4.44032 8.26829L5.43888 10.1024C5.53058 10.2756 5.71399 10.3775 5.90759 10.3877C6.11138 10.3877 6.2846 10.2756 6.3763 10.1024L7.37486 8.26829L9.20895 7.26973C9.24971 7.24936 9.29047 7.2086 9.33123 7.16784C9.43312 7.06595 9.48407 6.93348 9.49426 6.78064C9.49426 6.57686 9.38217 6.40364 9.20895 6.31193L7.37486 5.33375Z"
          fill="white"/>
    <path d="M11.9452 11.1375L11.3271 10.0023C11.2703 9.89506 11.1568 9.83199 11.037 9.82568C10.9109 9.82568 10.8036 9.89506 10.7469 10.0023L10.1288 11.1375L8.99361 11.7555C8.88639 11.8123 8.82332 11.9258 8.81702 12.0457C8.81702 12.1718 8.88639 12.279 8.99361 12.3358L10.1288 12.9538L10.7469 14.089C10.8036 14.1963 10.9172 14.2593 11.037 14.2656C11.1631 14.2656 11.2703 14.1963 11.3271 14.089L11.9452 12.9538L13.0804 12.3358C13.1056 12.3232 13.1308 12.2979 13.1561 12.2727C13.2191 12.2096 13.2507 12.1276 13.257 12.033C13.257 11.9069 13.1876 11.7997 13.0804 11.7429L11.9452 11.1375Z"
          fill="white"/>
    <ellipse cx="4.65426" cy="12.379" rx="0.333333" ry="0.333333" fill="white"/>
    <ellipse cx="13.5124" cy="8.48104" rx="0.333333" ry="0.333333" fill="white"/>
</svg>
