<svg width="17" height="17" viewBox="0 0 17 17" fill="none" xmlns="http://www.w3.org/2000/svg">
    <path d="M5.85004 14.68C5.83004 14.68 5.80337 14.6933 5.78337 14.6933C4.49004 14.0533 3.43671 12.9933 2.79004 11.7C2.79004 11.68 2.80337 11.6533 2.80337 11.6333C3.61671 11.8733 4.45671 12.0533 5.29004 12.1933C5.43671 13.0333 5.61004 13.8666 5.85004 14.68Z"
          fill="#626262"/>
    <path d="M14.7099 11.7066C14.0499 13.0333 12.9499 14.1066 11.6099 14.7533C11.8632 13.9066 12.0765 13.0533 12.2165 12.1933C13.0565 12.0533 13.8832 11.8733 14.6965 11.6333C14.6899 11.66 14.7099 11.6866 14.7099 11.7066Z"
          fill="#626262"/>
    <path d="M14.7632 5.8799C13.9232 5.62656 13.0765 5.4199 12.2165 5.27323C12.0765 4.41323 11.8699 3.5599 11.6099 2.72656C12.9899 3.38656 14.1032 4.4999 14.7632 5.8799Z"
          fill="#626262"/>
    <path d="M5.85015 2.80003C5.61015 3.61336 5.43682 4.44003 5.29682 5.28003C4.43682 5.41336 3.58348 5.6267 2.73682 5.88003C3.38348 4.54003 4.45682 3.44003 5.78348 2.78003C5.80348 2.78003 5.83015 2.80003 5.85015 2.80003Z"
          fill="#626262"/>
    <path d="M11.0767 5.13324C9.53001 4.95991 7.97001 4.95991 6.42334 5.13324C6.59001 4.21991 6.80334 3.30658 7.10334 2.42658C7.11667 2.37324 7.11001 2.33324 7.11667 2.27991C7.64334 2.15324 8.18334 2.07324 8.75001 2.07324C9.31001 2.07324 9.85667 2.15324 10.3767 2.27991C10.3833 2.33324 10.3833 2.37324 10.3967 2.42658C10.6967 3.31324 10.91 4.21991 11.0767 5.13324Z"
          fill="#626262"/>
    <path d="M5.1435 11.0667C4.2235 10.9 3.31683 10.6867 2.43683 10.3867C2.3835 10.3733 2.3435 10.38 2.29016 10.3733C2.1635 9.84666 2.0835 9.30666 2.0835 8.74C2.0835 8.18 2.1635 7.63333 2.29016 7.11333C2.3435 7.10666 2.3835 7.10666 2.43683 7.09333C3.3235 6.8 4.2235 6.58 5.1435 6.41333C4.97683 7.96 4.97683 9.52 5.1435 11.0667Z"
          fill="#626262"/>
    <path d="M15.4164 8.74C15.4164 9.30666 15.3364 9.84666 15.2098 10.3733C15.1564 10.38 15.1164 10.3733 15.0631 10.3867C14.1764 10.68 13.2698 10.9 12.3564 11.0667C12.5298 9.52 12.5298 7.96 12.3564 6.41333C13.2698 6.58 14.1831 6.79333 15.0631 7.09333C15.1164 7.10666 15.1564 7.11333 15.2098 7.11333C15.3364 7.64 15.4164 8.18 15.4164 8.74Z"
          fill="#626262"/>
    <path d="M11.0767 12.3467C10.91 13.2667 10.6967 14.1733 10.3967 15.0533C10.3833 15.1067 10.3833 15.1467 10.3767 15.2C9.85667 15.3267 9.31001 15.4067 8.75001 15.4067C8.18334 15.4067 7.64334 15.3267 7.11667 15.2C7.11001 15.1467 7.11667 15.1067 7.10334 15.0533C6.81001 14.1667 6.59001 13.2667 6.42334 12.3467C7.19667 12.4333 7.97001 12.4933 8.75001 12.4933C9.53001 12.4933 10.31 12.4333 11.0767 12.3467Z"
          fill="#626262"/>
    <path d="M11.259 11.2488C9.59165 11.4592 7.90867 11.4592 6.24128 11.2488C6.0309 9.5814 6.0309 7.89842 6.24128 6.23102C7.90867 6.02065 9.59165 6.02065 11.259 6.23102C11.4694 7.89842 11.4694 9.5814 11.259 11.2488Z"
          fill="#626262"/>
</svg>
