<svg width="20" height="21" viewBox="0 0 20 21" fill="none" xmlns="http://www.w3.org/2000/svg">
<path d="M18.04 5.32006L12.28 1.29006C10.71 0.19006 8.29999 0.25006 6.78999 1.42006L1.77999 5.33006C0.77999 6.11006 -0.0100098 7.71006 -0.0100098 8.97006V15.8701C-0.0100098 18.4201 2.05999 20.5001 4.60999 20.5001H15.39C17.94 20.5001 20.01 18.4301 20.01 15.8801V9.10006C20.01 7.75006 19.14 6.09006 18.04 5.32006ZM10.75 16.5001C10.75 16.9101 10.41 17.2501 9.99999 17.2501C9.58999 17.2501 9.24999 16.9101 9.24999 16.5001V13.5001C9.24999 13.0901 9.58999 12.7501 9.99999 12.7501C10.41 12.7501 10.75 13.0901 10.75 13.5001V16.5001Z" fill="#292D32"/>
</svg>
