<svg width="17" height="17" viewBox="0 0 17 17" fill="none" xmlns="http://www.w3.org/2000/svg">
<path d="M8.74992 2.07324C5.07659 2.07324 2.08325 5.06658 2.08325 8.73991C2.08325 12.4132 5.07659 15.4066 8.74992 15.4066C12.4233 15.4066 15.4166 12.4132 15.4166 8.73991C15.4166 5.06658 12.4233 2.07324 8.74992 2.07324ZM8.24992 6.07324C8.24992 5.79991 8.47659 5.57324 8.74992 5.57324C9.02325 5.57324 9.24992 5.79991 9.24992 6.07324V9.40658C9.24992 9.67991 9.02325 9.90658 8.74992 9.90658C8.47659 9.90658 8.24992 9.67991 8.24992 9.40658V6.07324ZM9.36325 11.6599C9.32992 11.7466 9.28325 11.8132 9.22325 11.8799C9.15659 11.9399 9.08325 11.9866 9.00325 12.0199C8.92325 12.0532 8.83659 12.0732 8.74992 12.0732C8.66325 12.0732 8.57659 12.0532 8.49659 12.0199C8.41659 11.9866 8.34325 11.9399 8.27659 11.8799C8.21659 11.8132 8.16992 11.7466 8.13659 11.6599C8.10325 11.5799 8.08325 11.4932 8.08325 11.4066C8.08325 11.3199 8.10325 11.2332 8.13659 11.1532C8.16992 11.0732 8.21659 10.9999 8.27659 10.9332C8.34325 10.8732 8.41659 10.8266 8.49659 10.7932C8.65659 10.7266 8.84325 10.7266 9.00325 10.7932C9.08325 10.8266 9.15659 10.8732 9.22325 10.9332C9.28325 10.9999 9.32992 11.0732 9.36325 11.1532C9.39659 11.2332 9.41659 11.3199 9.41659 11.4066C9.41659 11.4932 9.39659 11.5799 9.36325 11.6599Z" fill="#626262"/>
</svg>
