<svg width="17" height="17" viewBox="0 0 17 17" fill="none" xmlns="http://www.w3.org/2000/svg">
    <path d="M14.4165 7.53324H12.4898C10.9098 7.53324 9.62317 6.24658 9.62317 4.66658V2.73991C9.62317 2.37324 9.32317 2.07324 8.9565 2.07324H6.12984C4.0765 2.07324 2.4165 3.40658 2.4165 5.78658V11.6932C2.4165 14.0732 4.0765 15.4066 6.12984 15.4066H11.3698C13.4232 15.4066 15.0832 14.0732 15.0832 11.6932V8.19991C15.0832 7.83324 14.7832 7.53324 14.4165 7.53324ZM9.9165 10.6999C9.9165 10.7332 9.9165 10.7732 9.9165 10.8066C9.90317 10.8999 9.86317 10.9866 9.7965 11.0666C9.78984 11.0732 9.7765 11.0866 9.76984 11.0932L8.4365 12.4266C8.3365 12.5266 8.20984 12.5732 8.08317 12.5732C7.9565 12.5732 7.82984 12.5266 7.72984 12.4266C7.5365 12.2332 7.5365 11.9132 7.72984 11.7199L8.20984 11.2399H5.4165C5.14317 11.2399 4.9165 11.0132 4.9165 10.7399C4.9165 10.4666 5.14317 10.2399 5.4165 10.2399H8.20984L7.72984 9.75991C7.62984 9.65991 7.58317 9.53324 7.58317 9.40658C7.58317 9.27991 7.62984 9.15324 7.72984 9.05324C7.92317 8.85991 8.24317 8.85991 8.4365 9.05324L9.76984 10.3866C9.8565 10.4799 9.90317 10.5866 9.9165 10.6999Z"
          fill="#626262"/>
    <path d="M12.37 6.6134C13.0033 6.62007 13.8833 6.62007 14.6366 6.62007C15.0166 6.62007 15.2166 6.1734 14.95 5.90673C13.99 4.94007 12.27 3.20007 11.2833 2.2134C11.01 1.94007 10.5366 2.12673 10.5366 2.50673V4.8334C10.5366 5.80673 11.3633 6.6134 12.37 6.6134Z"
          fill="#626262"/>
</svg>
