<svg width="17" height="16" viewBox="0 0 17 16" fill="none" xmlns="http://www.w3.org/2000/svg">
<path d="M13.9433 2.81338C11.9699 0.846712 8.76994 0.846712 6.80994 2.81338C5.42994 4.18005 5.0166 6.14671 5.54993 7.88005L2.4166 11.0134C2.1966 11.24 2.04327 11.6867 2.08993 12.0067L2.28993 13.46C2.36327 13.94 2.80993 14.3934 3.28993 14.46L4.74327 14.66C5.06327 14.7067 5.50993 14.56 5.7366 14.3267L6.28327 13.78C6.4166 13.6534 6.4166 13.44 6.28327 13.3067L4.98994 12.0134C4.7966 11.82 4.7966 11.5 4.98994 11.3067C5.18327 11.1134 5.50327 11.1134 5.6966 11.3067L6.9966 12.6067C7.12327 12.7334 7.3366 12.7334 7.46327 12.6067L8.8766 11.2C10.6033 11.74 12.5699 11.32 13.9433 9.95338C15.9099 7.98671 15.9099 4.78005 13.9433 2.81338ZM10.4166 8.00005C9.4966 8.00005 8.74993 7.25338 8.74993 6.33338C8.74993 5.41338 9.4966 4.66671 10.4166 4.66671C11.3366 4.66671 12.0833 5.41338 12.0833 6.33338C12.0833 7.25338 11.3366 8.00005 10.4166 8.00005Z" fill="white"/>
</svg>
