<svg width="33" height="33" viewBox="0 0 33 33" fill="none" xmlns="http://www.w3.org/2000/svg">
    <path d="M10.9232 5.4999C11.1624 5.36944 11.4166 5.57014 11.4166 5.84259V24.0427C11.4166 24.266 11.2657 24.4565 11.0629 24.5498C11.0148 24.5719 10.9684 24.5953 10.9232 24.6199L7.78989 26.4066C5.60322 27.6599 3.80322 26.6199 3.80322 24.0866V11.1132C3.80322 10.2732 4.40322 9.23323 5.14989 8.80657L10.9232 5.4999Z"
          fill="#626262"/>
    <path d="M20.4719 8.9222C20.6422 9.00656 20.75 9.18019 20.75 9.37027V27.2765C20.75 27.645 20.365 27.8869 20.033 27.727L14.033 24.8363C13.86 24.7529 13.75 24.5778 13.75 24.3858V6.39883C13.75 6.02798 14.1396 5.78619 14.4719 5.95077L20.4719 8.9222Z"
          fill="#626262"/>
    <path d="M30.0835 9.39333V22.3667C30.0835 23.2067 29.4835 24.2467 28.7368 24.6733L23.8321 27.4843C23.4988 27.6753 23.0835 27.4347 23.0835 27.0505V9.08365C23.0835 8.90414 23.1797 8.7384 23.3356 8.64941L26.0968 7.07333C28.2835 5.82 30.0835 6.85999 30.0835 9.39333Z"
          fill="#626262"/>
</svg>
