<svg width="24" height="25" viewBox="0 0 24 25" fill="none" xmlns="http://www.w3.org/2000/svg">
<path d="M18.65 5.09003C16.89 3.49003 14.56 2.53003 12 2.53003C6.50003 2.53003 2.03003 7.00003 2.03003 12.5C2.03003 18 6.50003 22.47 12 22.47C14.56 22.47 16.89 21.51 18.65 19.91C20.69 18.1 21.97 15.44 21.97 12.5C21.97 9.56003 20.69 6.90003 18.65 5.09003ZM11.97 16.89C11.95 18.54 10.72 18.94 9.57003 18.48C7.20003 17.53 5.53003 15.21 5.53003 12.5C5.53003 9.79003 7.20003 7.47003 9.57003 6.51003C10.72 6.05003 11.95 6.46003 11.97 8.10003V16.89Z" fill="#353535"/>
</svg>
