<svg width="17" height="17" viewBox="0 0 17 17" fill="none" xmlns="http://www.w3.org/2000/svg">
    <path d="M15.4166 2.07324H2.08325C1.80992 2.07324 1.58325 1.84658 1.58325 1.57324C1.58325 1.29991 1.80992 1.07324 2.08325 1.07324H15.4166C15.6899 1.07324 15.9166 1.29991 15.9166 1.57324C15.9166 1.84658 15.6899 2.07324 15.4166 2.07324Z"
          fill="#626262"/>
    <path d="M11.8633 15.1332C11.7766 15.3066 11.5966 15.4066 11.4166 15.4066C11.3433 15.4066 11.2633 15.3866 11.1966 15.3532L8.74993 14.1332L6.30326 15.3532C6.23659 15.3866 6.15659 15.4066 6.08326 15.4066C5.90326 15.4066 5.72326 15.3066 5.63659 15.1332C5.50993 14.8799 5.60993 14.5799 5.86326 14.4599L8.24993 13.2666V11.5732H9.24993V13.2666L11.6366 14.4599C11.8899 14.5799 11.9899 14.8799 11.8633 15.1332Z"
          fill="#626262"/>
    <path d="M2.75 1.57324V9.63991C2.75 10.9066 3.41667 11.5732 4.68333 11.5732H12.8167C14.0833 11.5732 14.75 10.9066 14.75 9.63991V1.57324H2.75ZM12.07 5.95991L9.97 7.71324C9.77667 7.87324 9.53 7.93991 9.29667 7.89991C9.05667 7.85991 8.85 7.71324 8.72333 7.49991L8.02333 6.33324L6.07 7.95991C5.97667 8.03991 5.86333 8.07324 5.75 8.07324C5.61 8.07324 5.46333 8.01324 5.36333 7.89324C5.18333 7.67991 5.21667 7.36658 5.43 7.18658L7.53 5.43324C7.72333 5.27324 7.97 5.20658 8.20333 5.24658C8.44333 5.28658 8.65 5.43324 8.77667 5.64658L9.47667 6.81324L11.43 5.18658C11.6433 5.00658 11.9567 5.03991 12.1367 5.25324C12.31 5.46658 12.2833 5.77991 12.07 5.95991Z"
          fill="#626262"/>
</svg>
