<svg width="17" height="17" viewBox="0 0 17 17" fill="none" xmlns="http://www.w3.org/2000/svg">
    <ellipse cx="8.77669" cy="2.40658" rx="1.33333" ry="1.33333" fill="#626262"/>
    <ellipse cx="8.74984" cy="14.0599" rx="1.33333" ry="1.33333" fill="#626262"/>
    <ellipse cx="14.5833" cy="8.24007" rx="1.33333" ry="1.33333" fill="#626262"/>
    <ellipse cx="2.91683" cy="8.24007" rx="1.33333" ry="1.33333" fill="#626262"/>
    <path d="M5.47826 3.2714C5.93387 3.72701 5.93387 4.4657 5.47826 4.92131C5.02265 5.37692 4.28395 5.37692 3.82834 4.92131C3.37273 4.4657 3.37273 3.72701 3.82834 3.2714C4.28395 2.81578 5.02265 2.81578 5.47826 3.2714Z"
          fill="#626262"/>
    <path d="M13.6995 11.5304C14.1551 11.986 14.1551 12.7247 13.6995 13.1803C13.2439 13.6359 12.5052 13.6359 12.0496 13.1803C11.594 12.7247 11.594 11.986 12.0496 11.5304C12.5052 11.0748 13.2439 11.0748 13.6995 11.5304Z"
          fill="#626262"/>
    <path d="M5.4594 11.5398C5.91501 11.9954 5.91501 12.7341 5.4594 13.1897C5.00379 13.6454 4.26509 13.6454 3.80948 13.1897C3.35387 12.7341 3.35387 11.9954 3.80948 11.5398C4.26509 11.0842 5.00379 11.0842 5.4594 11.5398Z"
          fill="#626262"/>
</svg>
