<svg width="24" height="25" viewBox="0 0 24 25" fill="none" xmlns="http://www.w3.org/2000/svg">
<path d="M6.6549 17.6669C5.82418 17.6669 5.08614 17.5244 4.44079 17.2395C3.79887 16.9511 3.29426 16.5546 2.92695 16.05C2.55965 15.5454 2.37428 14.9653 2.37085 14.3096H5.25435C5.25778 14.5122 5.31957 14.6941 5.43971 14.8554C5.56329 15.0134 5.7315 15.1369 5.94433 15.2262C6.15716 15.3154 6.40088 15.3601 6.6755 15.3601C6.93982 15.3601 7.17325 15.3137 7.37578 15.221C7.57831 15.1249 7.73621 14.9928 7.84949 14.8246C7.96277 14.6563 8.0177 14.4641 8.01427 14.2479C8.0177 14.035 7.95248 13.8462 7.8186 13.6815C7.68816 13.5167 7.5045 13.388 7.26765 13.2953C7.03079 13.2026 6.75788 13.1562 6.44894 13.1562H5.37793V11.179H6.44894C6.73386 11.179 6.98444 11.1326 7.20071 11.04C7.4204 10.9473 7.59032 10.8185 7.71047 10.6538C7.83405 10.489 7.89412 10.3002 7.89069 10.0874C7.89412 9.88141 7.84434 9.69948 7.74136 9.54157C7.63838 9.38367 7.49421 9.26009 7.30884 9.17084C7.1269 9.08159 6.91579 9.03696 6.6755 9.03696C6.41461 9.03696 6.18118 9.0833 5.97522 9.17599C5.77269 9.26867 5.61307 9.3974 5.49635 9.56217C5.37964 9.72694 5.31957 9.91574 5.31614 10.1286H2.57681C2.58025 9.48322 2.75703 8.91338 3.10717 8.41907C3.46074 7.92475 3.94476 7.53686 4.55922 7.25537C5.17368 6.97389 5.8791 6.83315 6.6755 6.83315C7.45473 6.83315 8.14299 6.96531 8.74029 7.22963C9.34102 7.49395 9.80959 7.85782 10.146 8.32124C10.4858 8.78122 10.654 9.30815 10.6506 9.90201C10.6575 10.4924 10.4549 10.9765 10.043 11.3541C9.63452 11.7317 9.11617 11.9548 8.48798 12.0234V12.1058C9.3393 12.1985 9.97951 12.4594 10.4086 12.8885C10.8377 13.3141 11.0488 13.8497 11.0419 14.495C11.0454 15.1129 10.86 15.6604 10.4858 16.1376C10.1151 16.6147 9.59847 16.9889 8.93595 17.2601C8.27687 17.5313 7.51652 17.6669 6.6549 17.6669Z" fill="#353535"/>
<path d="M16.3571 17.5227H12.2996V6.97732H16.3159C17.4006 6.97732 18.3378 7.18843 19.1273 7.61066C19.9203 8.02945 20.5313 8.63361 20.9604 9.42314C21.3929 10.2092 21.6092 11.1515 21.6092 12.25C21.6092 13.3485 21.3946 14.2925 20.9655 15.082C20.5365 15.8681 19.9289 16.4723 19.1428 16.8945C18.3567 17.3133 17.4281 17.5227 16.3571 17.5227ZM15.1625 15.0923H16.2541C16.7759 15.0923 17.2204 15.0082 17.5877 14.84C17.9585 14.6718 18.24 14.3817 18.4322 13.9698C18.6279 13.5579 18.7257 12.9846 18.7257 12.25C18.7257 11.5154 18.6261 10.9421 18.427 10.5302C18.2314 10.1183 17.943 9.82821 17.562 9.66C17.1844 9.4918 16.721 9.4077 16.1717 9.4077H15.1625V15.0923Z" fill="#353535"/>
</svg>
