<svg width="24" height="25" viewBox="0 0 24 25" fill="none" xmlns="http://www.w3.org/2000/svg">
<path d="M16.19 2.5H7.81C4.17 2.5 2 4.67 2 8.31V16.68C2 20.33 4.17 22.5 7.81 22.5H16.18C19.82 22.5 21.99 20.33 21.99 16.69V8.31C22 4.67 19.83 2.5 16.19 2.5ZM7.67 6C7.67 5.59 8.01 5.25 8.42 5.25C8.83 5.25 9.17 5.59 9.17 6V9.9C9.17 10.31 8.83 10.65 8.42 10.65C8.01 10.65 7.67 10.31 7.67 9.9V6ZM9.52282 16.9313C9.31938 17.0216 9.17 17.2132 9.17 17.4358V19C9.17 19.41 8.83 19.75 8.42 19.75C8.01 19.75 7.67 19.41 7.67 19V17.4358C7.67 17.2132 7.5206 17.0216 7.31723 16.9311C6.36275 16.5064 5.7 15.558 5.7 14.45C5.7 12.95 6.92 11.72 8.42 11.72C9.92 11.72 11.15 12.94 11.15 14.45C11.15 15.5582 10.4791 16.5066 9.52282 16.9313ZM16.33 19C16.33 19.41 15.99 19.75 15.58 19.75C15.17 19.75 14.83 19.41 14.83 19V15.1C14.83 14.69 15.17 14.35 15.58 14.35C15.99 14.35 16.33 14.69 16.33 15.1V19ZM15.58 13.27C14.08 13.27 12.85 12.05 12.85 10.54C12.85 9.43185 13.5209 8.48342 14.4772 8.05873C14.6806 7.96839 14.83 7.77681 14.83 7.55421V6C14.83 5.59 15.17 5.25 15.58 5.25C15.99 5.25 16.33 5.59 16.33 6V7.56421C16.33 7.78681 16.4794 7.97835 16.6828 8.06885C17.6372 8.4936 18.3 9.44195 18.3 10.55C18.3 12.05 17.08 13.27 15.58 13.27Z" fill="#292D32"/>
</svg>
