<svg width="24" height="25" viewBox="0 0 24 25" fill="none" xmlns="http://www.w3.org/2000/svg">
<path d="M20.75 17V8C21.94 7.5 22.75 6.33 22.75 5C22.75 3.21 21.29 1.75 19.5 1.75C18.18 1.75 17 2.56 16.5 3.75H7.5C7 2.56 5.83 1.75 4.5 1.75C2.71 1.75 1.25 3.21 1.25 5C1.25 6.32 2.06 7.5 3.25 8V17C2.06 17.5 1.25 18.67 1.25 20C1.25 21.79 2.71 23.25 4.5 23.25C5.82 23.25 7 22.44 7.5 21.25H16.5C17 22.44 18.17 23.25 19.5 23.25C21.29 23.25 22.75 21.79 22.75 20C22.75 18.68 21.94 17.5 20.75 17ZM19.16 16.77C19.05 16.78 18.95 16.8 18.84 16.82C18.57 16.87 18.31 16.96 18.06 17.09C18 17.12 17.94 17.15 17.88 17.19C17.38 17.47 16.97 17.88 16.69 18.38C16.65 18.44 16.62 18.5 16.59 18.56C16.46 18.81 16.37 19.07 16.32 19.34C16.3 19.45 16.28 19.55 16.27 19.66C16.26 19.69 16.26 19.72 16.26 19.75H7.74C7.72 19.5 7.67 19.26 7.6 19.03C7.58 18.95 7.55 18.86 7.51 18.78C7.48 18.71 7.45 18.64 7.41 18.56C7.38 18.5 7.35 18.44 7.31 18.38C7.03 17.88 6.62 17.47 6.12 17.19C6.06 17.15 6 17.12 5.94 17.09C5.86 17.05 5.79 17.02 5.72 16.99C5.64 16.95 5.55 16.92 5.47 16.9C5.24 16.83 5 16.78 4.75 16.76V8.24C5.01 8.22 5.25 8.17 5.49 8.09C5.58 8.07 5.68 8.03 5.77 7.99C5.82 7.97 5.88 7.94 5.94 7.91C6 7.88 6.06 7.85 6.12 7.81C6.62 7.53 7.03 7.12 7.31 6.62C7.35 6.56 7.38 6.5 7.41 6.44C7.44 6.38 7.47 6.32 7.49 6.27C7.53 6.18 7.57 6.08 7.59 5.99C7.67 5.75 7.72 5.51 7.74 5.25H16.26C16.28 5.52 16.33 5.77 16.42 6.02C16.44 6.1 16.47 6.19 16.51 6.27C16.53 6.33 16.56 6.38 16.59 6.44C16.62 6.5 16.65 6.56 16.69 6.62C16.97 7.12 17.38 7.53 17.88 7.81C17.94 7.85 18 7.88 18.06 7.91C18.12 7.94 18.17 7.97 18.23 7.99C18.31 8.03 18.4 8.06 18.48 8.08C18.73 8.17 18.98 8.22 19.25 8.24V16.76C19.22 16.76 19.19 16.76 19.16 16.77Z" fill="#292D32"/>
</svg>
