<svg width="17" height="17" viewBox="0 0 17 17" fill="none" xmlns="http://www.w3.org/2000/svg">
    <path d="M14.0836 13.0799H8.0369C7.7369 13.0799 7.49023 12.8332 7.49023 12.5332C7.49023 12.2332 7.7369 11.9866 8.0369 11.9866H14.0836C14.3836 11.9866 14.6302 12.2332 14.6302 12.5332C14.6302 12.8399 14.3836 13.0799 14.0836 13.0799Z"
          fill="#626262"/>
    <path d="M14.0836 8.88655H8.0369C7.7369 8.88655 7.49023 8.63988 7.49023 8.33988C7.49023 8.03988 7.7369 7.79321 8.0369 7.79321H14.0836C14.3836 7.79321 14.6302 8.03988 14.6302 8.33988C14.6302 8.63988 14.3836 8.88655 14.0836 8.88655Z"
          fill="#626262"/>
    <path d="M14.0836 4.68659H8.0369C7.7369 4.68659 7.49023 4.43993 7.49023 4.13993C7.49023 3.83993 7.7369 3.59326 8.0369 3.59326H14.0836C14.3836 3.59326 14.6302 3.83993 14.6302 4.13993C14.6302 4.43993 14.3836 4.68659 14.0836 4.68659Z"
          fill="#626262"/>
    <path d="M4.02345 5.59343C3.87678 5.59343 3.73678 5.53343 3.63678 5.43343L3.03012 4.82677C2.81678 4.61343 2.81678 4.26677 3.03012 4.05343C3.24345 3.8401 3.59012 3.8401 3.80345 4.05343L4.02345 4.27343L5.45012 2.84677C5.66345 2.63343 6.01012 2.63343 6.22345 2.84677C6.43678 3.0601 6.43678 3.40677 6.22345 3.6201L4.41012 5.43343C4.30345 5.53343 4.17012 5.59343 4.02345 5.59343Z"
          fill="#626262"/>
    <path d="M4.02345 9.79339C3.88345 9.79339 3.74345 9.74005 3.63678 9.63339L3.03012 9.02672C2.81678 8.81339 2.81678 8.46672 3.03012 8.25339C3.24345 8.04005 3.59012 8.04005 3.80345 8.25339L4.02345 8.47339L5.45012 7.04672C5.66345 6.83339 6.01012 6.83339 6.22345 7.04672C6.43678 7.26005 6.43678 7.60672 6.22345 7.82005L4.41012 9.63339C4.30345 9.74005 4.16345 9.79339 4.02345 9.79339Z"
          fill="#626262"/>
    <path d="M4.02345 13.7934C3.88345 13.7934 3.74345 13.7401 3.63678 13.6334L3.03012 13.0267C2.81678 12.8134 2.81678 12.4667 3.03012 12.2534C3.24345 12.0401 3.59012 12.0401 3.80345 12.2534L4.02345 12.4734L5.45012 11.0467C5.66345 10.8334 6.01012 10.8334 6.22345 11.0467C6.43678 11.2601 6.43678 11.6067 6.22345 11.8201L4.41012 13.6334C4.30345 13.7401 4.16345 13.7934 4.02345 13.7934Z"
          fill="#626262"/>
</svg>
