<svg width="24" height="25" viewBox="0 0 24 25" fill="none" xmlns="http://www.w3.org/2000/svg">
<path d="M12 5.1499C7.21996 5.1499 3.32996 9.0399 3.32996 13.8199C3.32996 18.5999 7.21996 22.4999 12 22.4999C16.78 22.4999 20.67 18.6099 20.67 13.8299C20.67 9.0499 16.78 5.1499 12 5.1499ZM12.75 13.4999C12.75 13.9099 12.41 14.2499 12 14.2499C11.59 14.2499 11.25 13.9099 11.25 13.4999V8.4999C11.25 8.0899 11.59 7.7499 12 7.7499C12.41 7.7499 12.75 8.0899 12.75 8.4999V13.4999Z" fill="#626262"/>
<path d="M14.89 3.95H9.11001C8.71001 3.95 8.39001 3.63 8.39001 3.23C8.39001 2.83 8.71001 2.5 9.11001 2.5H14.89C15.29 2.5 15.61 2.82 15.61 3.22C15.61 3.62 15.29 3.95 14.89 3.95Z" fill="#626262"/>
</svg>
