<svg width="17" height="17" viewBox="0 0 17 17" fill="none" xmlns="http://www.w3.org/2000/svg">
<path d="M11.53 7.44662H5.97C5.18333 7.44662 4.91 6.91995 5.37 6.27995L8.15 2.38662C8.47667 1.91995 9.02333 1.91995 9.35 2.38662L12.13 6.27995C12.59 6.91995 12.3167 7.44662 11.53 7.44662Z" fill="#626262"/>
<path d="M12.4767 12.7401H5.02333C3.97 12.7401 3.61 12.0401 4.23 11.1868L6.89 7.44678H10.61L13.27 11.1868C13.89 12.0401 13.53 12.7401 12.4767 12.7401Z" fill="#626262"/>
<path d="M9.25 12.74V15.4067C9.25 15.68 9.02333 15.9067 8.75 15.9067C8.47667 15.9067 8.25 15.68 8.25 15.4067V12.74H9.25Z" fill="#626262"/>
</svg>
