<svg width="33" height="33" viewBox="0 0 33 33" fill="none" xmlns="http://www.w3.org/2000/svg">
    <path d="M28.0835 14.3267H24.2302C21.0702 14.3267 18.4968 11.7534 18.4968 8.5934V4.74007C18.4968 4.00674 17.8968 3.40674 17.1635 3.40674H11.5102C7.4035 3.40674 4.0835 6.07341 4.0835 10.8334V22.6467C4.0835 27.4067 7.4035 30.0734 11.5102 30.0734H21.9902C26.0968 30.0734 29.4168 27.4067 29.4168 22.6467V15.6601C29.4168 14.9267 28.8168 14.3267 28.0835 14.3267ZM16.1235 18.7801C15.9235 18.9801 15.6702 19.0734 15.4168 19.0734C15.1635 19.0734 14.9102 18.9801 14.7102 18.7801L13.7502 17.8201V23.4067C13.7502 23.9534 13.2968 24.4067 12.7502 24.4067C12.2035 24.4067 11.7502 23.9534 11.7502 23.4067V17.8201L10.7902 18.7801C10.4035 19.1667 9.7635 19.1667 9.37683 18.7801C8.99016 18.3934 8.99016 17.7534 9.37683 17.3667L12.0435 14.7001C12.1368 14.6201 12.2302 14.5534 12.3368 14.5001C12.3635 14.4867 12.4035 14.4734 12.4302 14.4601C12.5102 14.4334 12.5902 14.4201 12.6835 14.4067C12.7235 14.4067 12.7502 14.4067 12.7902 14.4067C12.8968 14.4067 13.0035 14.4334 13.1102 14.4734C13.1235 14.4734 13.1235 14.4734 13.1368 14.4734C13.2435 14.5134 13.3502 14.5934 13.4302 14.6734C13.4435 14.6867 13.4568 14.6867 13.4568 14.7001L16.1235 17.3667C16.5102 17.7534 16.5102 18.3934 16.1235 18.7801Z"
          fill="#626262"/>
    <path d="M23.9899 12.4866C25.2566 12.4999 27.0166 12.4999 28.5232 12.4999C29.2832 12.4999 29.6832 11.6066 29.1499 11.0732C27.2299 9.1399 23.7899 5.6599 21.8166 3.68657C21.2699 3.1399 20.3232 3.51323 20.3232 4.27323V8.92657C20.3232 10.8732 21.9766 12.4866 23.9899 12.4866Z"
          fill="#626262"/>
</svg>
