<svg width="17" height="17" viewBox="0 0 17 17" fill="none" xmlns="http://www.w3.org/2000/svg">
<path d="M15.2567 11.3532L10.99 3.67324C10.4167 2.63991 9.62332 2.07324 8.74998 2.07324C7.87665 2.07324 7.08332 2.63991 6.50998 3.67324L2.24332 11.3532C1.70332 12.3332 1.64332 13.2732 2.07665 14.0132C2.50999 14.7532 3.36332 15.1599 4.48332 15.1599H13.0167C14.1367 15.1599 14.99 14.7532 15.4233 14.0132C15.8567 13.2732 15.7967 12.3266 15.2567 11.3532ZM8.24998 6.73991C8.24998 6.46658 8.47665 6.23991 8.74998 6.23991C9.02332 6.23991 9.24998 6.46658 9.24998 6.73991V10.0732C9.24998 10.3466 9.02332 10.5732 8.74998 10.5732C8.47665 10.5732 8.24998 10.3466 8.24998 10.0732V6.73991ZM9.22332 12.5466C9.18998 12.5732 9.15665 12.5999 9.12332 12.6266C9.08332 12.6532 9.04332 12.6732 9.00332 12.6866C8.96332 12.7066 8.92332 12.7199 8.87665 12.7266C8.83665 12.7332 8.78998 12.7399 8.74998 12.7399C8.70998 12.7399 8.66332 12.7332 8.61665 12.7266C8.57665 12.7199 8.53665 12.7066 8.49665 12.6866C8.45665 12.6732 8.41665 12.6532 8.37665 12.6266C8.34332 12.5999 8.30998 12.5732 8.27665 12.5466C8.15665 12.4199 8.08332 12.2466 8.08332 12.0732C8.08332 11.8999 8.15665 11.7266 8.27665 11.5999C8.30998 11.5732 8.34332 11.5466 8.37665 11.5199C8.41665 11.4932 8.45665 11.4732 8.49665 11.4599C8.53665 11.4399 8.57665 11.4266 8.61665 11.4199C8.70332 11.3999 8.79665 11.3999 8.87665 11.4199C8.92332 11.4266 8.96332 11.4399 9.00332 11.4599C9.04332 11.4732 9.08332 11.4932 9.12332 11.5199C9.15665 11.5466 9.18998 11.5732 9.22332 11.5999C9.34332 11.7266 9.41665 11.8999 9.41665 12.0732C9.41665 12.2466 9.34332 12.4199 9.22332 12.5466Z" fill="#D07E00"/>
</svg>
